<svg xmlns="http://www.w3.org/2000/svg" xmlns:xlink="http://www.w3.org/1999/xlink" width="200" height="100" viewBox="0 0 150 75"><clipPath id="a"><path transform="scale(.24)" d="M0 0h625v343.75H0z" fill-rule="evenodd"/></clipPath><g clip-path="url(#a)"><path d="M0 0h150v157.5H0z" fill="transparent"/></g><clipPath id="b"><path transform="scale(.24)" d="M0 0h625v312.5H0z" fill-rule="evenodd"/></clipPath><g clip-path="url(#b)"><path d="M0 0h150v75H0z" fill="transparent"/></g><clipPath id="c"><path transform="scale(.24)" d="M0 0h625v312.5H0z" fill-rule="evenodd"/></clipPath><g clip-path="url(#c)"><path d="M0 0h150v75H0z" fill="transparent"/></g><clipPath id="d"><path transform="scale(.24)" d="M0 0h625v312.5H0z" fill-rule="evenodd"/></clipPath><g clip-path="url(#d)"><symbol id="e"><path d="M.17.253A.113.113 0 0 0 .221.222.115.115 0 0 0 .25.174.142.142 0 0 0 .256.122a.132.132 0 0 0-.053-.1A.128.128 0 0 0 .128 0a.121.121 0 0 0-.07.018.116.116 0 0 0-.043.05A.162.162 0 0 0 0 .132c0 .022.003.044.008.066a.395.395 0 0 0 .057.121.5.5 0 0 0 .033.046A.11.11 0 0 0 .142.4C.158.407.173.41.187.406A.062.062 0 0 0 .222.392.035.035 0 0 0 .235.364.645.645 0 0 0 .2.306.666.666 0 0 1 .17.253m.288 0A.113.113 0 0 0 .511.222a.133.133 0 0 0 .035-.1.132.132 0 0 0-.053-.1A.128.128 0 0 0 .418 0a.121.121 0 0 0-.07.018.116.116 0 0 0-.043.05.17.17 0 0 0-.015.064.22.22 0 0 0 .008.066.395.395 0 0 0 .057.121.5.5 0 0 0 .033.046A.11.11 0 0 0 .432.4C.448.407.463.41.477.406A.058.058 0 0 0 .511.392.035.035 0 0 0 .524.364.553.553 0 0 0 .49.306.846.846 0 0 1 .458.253z"/></symbol><symbol id="f"><path d="M.003.16A1.548 1.548 0 0 0 0 .306a7.503 7.503 0 0 0 .007.291l.006.07.081.005a3.498 3.498 0 0 0 .4-.006A.087.087 0 0 0 .506.64.162.162 0 0 0 .51.6.165.165 0 0 0 .505.552.12.12 0 0 0 .483.51.101.101 0 0 0 .442.478.158.158 0 0 0 .376.466H.239V.43a1.608 1.608 0 0 1 .096.001c.02 0 .04 0 .058-.002A.246.246 0 0 0 .444.42.164.164 0 0 0 .461.338.09.09 0 0 0 .43.276.117.117 0 0 0 .355.25H.24V.21H.468a.137.137 0 0 0 .02-.123A.113.113 0 0 0 .45.034.15.15 0 0 0 .375.006 1.734 1.734 0 0 0 .14.003a.298.298 0 0 0-.041.005.111.111 0 0 0-.07.048.228.228 0 0 0-.025.104z"/></symbol><symbol id="g"><path d="M.344.398h.002-.002M.104.14A.652.652 0 0 0 .08.209a2.206 2.206 0 0 0-.044.197A40.91 40.91 0 0 0 0 .605a.086.086 0 0 0 .024.039.153.153 0 0 0 .147.036.1.1 0 0 0 .044-.031A.124.124 0 0 0 .243.59a3.756 3.756 0 0 0 .06-.352H.31a4.148 4.148 0 0 1 .037.16l.016.077a28.107 28.107 0 0 1 .04.198.22.22 0 0 0 .105.017.11.11 0 0 0 .07-.036A.143.143 0 0 0 .612.58.277.277 0 0 0 .61.477 1.344 1.344 0 0 0 .562.284 3.054 3.054 0 0 0 .499.092.752.752 0 0 0 .47.027.718.718 0 0 0 .352.002a.342.342 0 0 0-.07 0A.206.206 0 0 0 .103.14z"/></symbol><symbol id="h"><path d="M.003.16A1.548 1.548 0 0 0 0 .306a7.503 7.503 0 0 0 .007.291l.006.07.081.005a3.498 3.498 0 0 0 .4-.006A.087.087 0 0 0 .506.64.162.162 0 0 0 .51.6.165.165 0 0 0 .505.552.12.12 0 0 0 .483.51.101.101 0 0 0 .442.478.158.158 0 0 0 .376.466H.239V.43a1.608 1.608 0 0 1 .096.001c.02 0 .04 0 .058-.002A.246.246 0 0 0 .444.42.164.164 0 0 0 .461.338.09.09 0 0 0 .43.276.117.117 0 0 0 .355.25H.24V.21H.468a.137.137 0 0 0 .02-.123A.113.113 0 0 0 .45.034.15.15 0 0 0 .375.006 1.734 1.734 0 0 0 .14.003a.298.298 0 0 0-.041.005.111.111 0 0 0-.07.048.228.228 0 0 0-.025.104z"/></symbol><symbol id="i"><path d="M.491.268A.828.828 0 0 0 .604.097.115.115 0 0 0 .578.038a.108.108 0 0 0-.05-.031.132.132 0 0 0-.062-.004.159.159 0 0 0-.064.026.19.19 0 0 0-.054.06A2.037 2.037 0 0 1 .27.21L.265.218a.105.105 0 0 1-.006.008.01.01 0 0 0-.004-.002.312.312 0 0 0-.002-.04A1.784 1.784 0 0 0 .242.048.095.095 0 0 0 .199.022.143.143 0 0 0 .04.084a.197.197 0 0 0-.029.075A5.874 5.874 0 0 0 0 .392v.102l.005.088A.368.368 0 0 0 .014.64a.14.14 0 0 0 .045.026.678.678 0 0 0 .35.017.256.256 0 0 0 .078-.035.26.26 0 0 0 .096-.13.224.224 0 0 0 .012-.084A.196.196 0 0 0 .572.35a.22.22 0 0 0-.08-.082m-.14.17c0 .01-.003.02-.01.028A.05.05 0 0 1 .31.48.08.08 0 0 1 .265.47V.439A.783.783 0 0 1 .268.404L.273.4h.025C.306.4.315.4.323.404c.02.003.03.014.03.034z"/></symbol><symbol id="j"><path d="M.323.423A1.137 1.137 0 0 1 .36.507a14.973 14.973 0 0 1 .055.128l.023.048a.14.14 0 0 0 .057.004A.142.142 0 0 0 .547.67.117.117 0 0 0 .588.634.102.102 0 0 0 .607.582.136.136 0 0 0 .594.517 1.22 1.22 0 0 0 .526.38 2.223 2.223 0 0 1 .447.226.075.075 0 0 1 .437.19V.142A1.876 1.876 0 0 0 .435.05V.03A.058.058 0 0 0 .408.012a.191.191 0 0 0-.047-.01.21.21 0 0 0-.109.017.115.115 0 0 0-.041.036.11.11 0 0 0-.018.06V.18l.001.014C.194.2.193.205.191.209A4.243 4.243 0 0 0 0 .607a.14.14 0 0 0 .085.081.142.142 0 0 0 .054.008.108.108 0 0 0 .047-.012.073.073 0 0 0 .031-.03A1.822 1.822 0 0 0 .29.49 1.7 1.7 0 0 1 .31.443l.004-.01a.234.234 0 0 0 .004-.01h.005z"/></symbol><symbol id="k"><path d="M0 0z"/></symbol><symbol id="l"><path d="M.463.393A.213.213 0 0 0 .538.32.182.182 0 0 0 .564.234.217.217 0 0 0 .44.028a.536.536 0 0 0-.335 0 .286.286 0 0 0-.08.047.11.11 0 0 0-.017.108.11.11 0 0 0 .029.044C.05.24.066.247.084.25c.018.003.038 0 .06-.011a.364.364 0 0 1 .118-.04C.292.197.31.206.316.226a.047.047 0 0 1 .003.02c0 .006-.004.01-.01.013a.125.125 0 0 1-.036.005.294.294 0 0 0-.155.053.212.212 0 0 0-.09.141A.172.172 0 0 0 .027.5a.222.222 0 0 0 .041.106C.082.623.1.64.121.654A.326.326 0 0 0 .272.7.457.457 0 0 0 .416.687.198.198 0 0 0 .469.663a.157.157 0 0 0 .05-.05.101.101 0 0 0 .003-.1A.13.13 0 0 0 .49.475a.106.106 0 0 0-.042-.02.108.108 0 0 1-.04.029.194.194 0 0 1-.105.019.09.09 0 0 1-.04-.012.032.032 0 0 1-.017-.028C.246.456.25.45.256.445A.083.083 0 0 1 .29.435a.846.846 0 0 0 .114-.02.223.223 0 0 0 .059-.022z"/></symbol><symbol id="m"><path d="M.418.002A1.274 1.274 0 0 0 .279 0L.23.002H.212a.456.456 0 0 0-.057.004.201.201 0 0 0-.06.02.148.148 0 0 0-.052.043.176.176 0 0 0-.028.078A1.147 1.147 0 0 0 0 .313a2.88 2.88 0 0 0 .003.22C.007.57.011.606.016.638.03.65.044.658.062.664A.157.157 0 0 0 .12.672a.13.13 0 0 0 .107-.06.176.176 0 0 0 .025-.08 4.344 4.344 0 0 0 .005-.3A1.836 1.836 0 0 0 .534.223.145.145 0 0 0 .532.076.163.163 0 0 0 .482.024.125.125 0 0 0 .418.002z"/></symbol><symbol id="n"><path d="M.746.667C.768.678.79.685.813.69A.198.198 0 0 0 .88.69.126.126 0 0 0 .936.667.103.103 0 0 0 .973.619.156.156 0 0 0 .979.543 2.125 2.125 0 0 0 .928.286a4.5 4.5 0 0 0-.069-.25 1.332 1.332 0 0 0-.12-.03A.319.319 0 0 0 .668 0a.201.201 0 0 0-.069.016.149.149 0 0 0-.057.044.224.224 0 0 0-.039.083.695.695 0 0 0-.02.112L.476.329H.468A240.47 240.47 0 0 0 .432.043.516.516 0 0 0 .244.008a.24.24 0 0 0-.069.013.168.168 0 0 0-.06.038.212.212 0 0 0-.046.072A.362.362 0 0 0 .05.2a4.975 4.975 0 0 0-.039.316A4.204 4.204 0 0 1 0 .622a.074.074 0 0 0 .025.037.168.168 0 0 0 .1.037c.02 0 .038-.003.056-.01A.093.093 0 0 0 .224.654a.114.114 0 0 0 .022-.06C.254.518.259.45.259.392.26.334.263.286.267.248a59.259 59.259 0 0 1 .007 0l.019.077A10.618 10.618 0 0 1 .33.48a12.018 12.018 0 0 1 .053.195.39.39 0 0 0 .086.018.17.17 0 0 0 .05-.005A.094.094 0 0 0 .591.62C.608.566.625.507.641.443L.693.244a.02.02 0 0 0 .006 0L.71.32a3.268 3.268 0 0 1 .021.189 3.168 3.168 0 0 1 .015.16z"/></symbol><symbol id="o"><path d="M.25.547A1.628 1.628 0 0 0 .257.403a3.85 3.85 0 0 0-.014-.37A.095.095 0 0 0 .2.007a.143.143 0 0 0-.11.015.167.167 0 0 0-.05.047.202.202 0 0 0-.029.075A4.287 4.287 0 0 0 0 .437a5.258 5.258 0 0 0 .006.165c.002.022.005.04.008.05.012.012.028.02.045.026a.164.164 0 0 0 .058.007.132.132 0 0 0 .105-.06A.18.18 0 0 0 .25.547z"/></symbol><symbol id="p"><path d="M.344.7A.383.383 0 0 0 .462.683.312.312 0 0 0 .61.588.33.33 0 0 0 .666.492.458.458 0 0 0 .694.363a.358.358 0 0 0-.016-.13.302.302 0 0 0-.232-.218.43.43 0 0 0-.142-.01.361.361 0 0 0-.137.04.284.284 0 0 0-.154.206.49.49 0 0 0-.007.177.298.298 0 0 0 .024.076.299.299 0 0 0 .193.177.382.382 0 0 0 .12.018M.348.46A.082.082 0 0 1 .3.446a.09.09 0 0 1-.033-.04.14.14 0 0 1-.01-.067.129.129 0 0 1 .018-.061.094.094 0 0 1 .036-.033A.078.078 0 0 1 .35.237c.012.001.024.005.036.011a.084.084 0 0 1 .03.034.132.132 0 0 1 .016.06.13.13 0 0 1-.01.064.09.09 0 0 1-.031.04.075.075 0 0 1-.044.014z"/></symbol><symbol id="q"><path d="M.006.13a4.699 4.699 0 0 0 .003.463C.01.624.012.65.015.667l.08.005a2.425 2.425 0 0 0 .212.001A3.595 3.595 0 0 0 .496.665a.087.087 0 0 0 .01-.027.162.162 0 0 0 .005-.04.165.165 0 0 0-.005-.046.12.12 0 0 0-.021-.044.104.104 0 0 0-.042-.031.158.158 0 0 0-.066-.012H.24V.386a1.608 1.608 0 0 1 .096 0c.02 0 .04 0 .059-.002a.246.246 0 0 0 .05-.01.175.175 0 0 0 .017-.066.143.143 0 0 0-.01-.062A.106.106 0 0 0 .418.2a.108.108 0 0 0-.06-.018L.325.18H.241V.128A1.324 1.324 0 0 0 .238.022.11.11 0 0 0 .193.004.184.184 0 0 0 .08.02.14.14 0 0 0 .03.062.151.151 0 0 0 .006.13z"/></symbol><symbol id="r"><path d="M.556.677a.112.112 0 0 0 .018-.04A.193.193 0 0 0 .58.58C.58.56.576.54.568.522A.113.113 0 0 0 .529.475.13.13 0 0 0 .46.453.417.417 0 0 1 .414.45 2.311 2.311 0 0 0 .416.276 3.09 3.09 0 0 0 .402.033.092.092 0 0 0 .36.007a.137.137 0 0 0-.11.016A.172.172 0 0 0 .2.07a.204.204 0 0 0-.029.077 4.796 4.796 0 0 0-.01.207V.45A.861.861 0 0 0 .09.448a.375.375 0 0 0-.067.007.11.11 0 0 0-.019.043.18.18 0 0 0 .012.112c.009.018.021.032.037.044a.118.118 0 0 0 .063.02 1.355 1.355 0 0 0 .134.003h.305z"/></symbol><symbol id="s"><path d="M.254.449h.128l.001.077L.385.6c0 .023.002.04.004.052a.135.135 0 0 0 .056.026A.167.167 0 0 0 .51.68.162.162 0 0 0 .57.66.132.132 0 0 0 .617.614.12.12 0 0 0 .633.55V.1A1.248 1.248 0 0 0 .63.03.071.071 0 0 0 .603.014a.272.272 0 0 0-.1-.01.18.18 0 0 0-.053.012.115.115 0 0 0-.043.028.092.092 0 0 0-.02.05.423.423 0 0 0-.005.072L.381.205v.029H.256V.029a.107.107 0 0 0-.03-.016.226.226 0 0 0-.157.005.114.114 0 0 0-.041.038.139.139 0 0 0-.02.067 1.724 1.724 0 0 0-.005.14A36.594 36.594 0 0 0 0 .47a6.505 6.505 0 0 0 .003.172.175.175 0 0 0 .183.023A.126.126 0 0 0 .231.63.094.094 0 0 0 .252.578.513.513 0 0 0 .255.472L.254.449z"/></symbol><symbol id="t"><path d="M.008.216a2.241 2.241 0 0 0 .08.294c.01.034.021.064.031.091C.13.628.14.65.148.666a.565.565 0 0 0 .146.026.275.275 0 0 0 .085-.01.202.202 0 0 0 .135-.129L.539.484A2.683 2.683 0 0 0 .647.088.064.064 0 0 0 .628.052a.149.149 0 0 0-.043-.03A.186.186 0 0 0 .53.006a.139.139 0 0 0-.059.005.12.12 0 0 0-.053.034.176.176 0 0 0-.037.07C.361.118.34.118.316.117H.25A.581.581 0 0 1 .219.02.218.218 0 0 0 .113.004.118.118 0 0 0 .04.04a.147.147 0 0 0-.036.075.288.288 0 0 0 .003.102M.274.31h.082a3.523 3.523 0 0 1-.039.16.02.02 0 0 0-.006 0 7.6 7.6 0 0 1-.037-.16z"/></symbol><use xlink:href="#e" transform="matrix(5.84515 0 0 -5.84515 8.105 25.066)" fill="#000"/><use xlink:href="#f" transform="matrix(5.84515 0 0 -5.84515 11.607 26.82)" fill="#000"/><use xlink:href="#g" transform="matrix(5.84515 0 0 -5.84515 14.892 26.888)" fill="#000"/><use xlink:href="#h" transform="matrix(5.84515 0 0 -5.84515 18.987 26.82)" fill="#000"/><use xlink:href="#i" transform="matrix(5.84515 0 0 -5.84515 22.241 26.9)" fill="#000"/><use xlink:href="#j" transform="matrix(5.84515 0 0 -5.84515 26.017 26.857)" fill="#000"/><use xlink:href="#k" transform="matrix(5.84515 0 0 -5.84515 29.653 26.786)" fill="#000"/><use xlink:href="#g" transform="matrix(5.84515 0 0 -5.84515 31.82 26.888)" fill="#000"/><use xlink:href="#h" transform="matrix(5.84515 0 0 -5.84515 35.915 26.82)" fill="#000"/><use xlink:href="#l" transform="matrix(5.84515 0 0 -5.84515 39.136 26.887)" fill="#000"/><use xlink:href="#l" transform="matrix(5.84515 0 0 -5.84515 42.807 26.887)" fill="#000"/><use xlink:href="#h" transform="matrix(5.84515 0 0 -5.84515 46.537 26.82)" fill="#000"/><use xlink:href="#m" transform="matrix(5.84515 0 0 -5.84515 49.777 26.804)" fill="#000"/><use xlink:href="#k" transform="matrix(5.84515 0 0 -5.84515 53.146 26.786)" fill="#000"/><use xlink:href="#n" transform="matrix(5.84515 0 0 -5.84515 55.235 26.903)" fill="#000"/><use xlink:href="#o" transform="matrix(5.84515 0 0 -5.84515 61.197 26.852)" fill="#000"/><use xlink:href="#m" transform="matrix(5.84515 0 0 -5.84515 63.076 26.804)" fill="#000"/><use xlink:href="#m" transform="matrix(5.84515 0 0 -5.84515 66.603 26.804)" fill="#000"/><use xlink:href="#k" transform="matrix(5.84515 0 0 -5.84515 69.972 26.786)" fill="#000"/><use xlink:href="#p" transform="matrix(5.84515 0 0 -5.84515 72.083 26.898)" fill="#000"/><use xlink:href="#g" transform="matrix(5.84515 0 0 -5.84515 76.503 26.888)" fill="#000"/><use xlink:href="#h" transform="matrix(5.84515 0 0 -5.84515 80.598 26.82)" fill="#000"/><use xlink:href="#i" transform="matrix(5.84515 0 0 -5.84515 83.852 26.9)" fill="#000"/><use xlink:href="#q" transform="matrix(5.84515 0 0 -5.84515 87.757 26.826)" fill="#000"/><use xlink:href="#m" transform="matrix(5.84515 0 0 -5.84515 91.043 26.804)" fill="#000"/><use xlink:href="#p" transform="matrix(5.84515 0 0 -5.84515 94.559 26.898)" fill="#000"/><use xlink:href="#n" transform="matrix(5.84515 0 0 -5.84515 98.901 26.903)" fill="#000"/><use xlink:href="#k" transform="matrix(5.84515 0 0 -5.84515 104.723 26.786)" fill="#000"/><use xlink:href="#n" transform="matrix(5.84515 0 0 -5.84515 106.812 26.903)" fill="#000"/><use xlink:href="#o" transform="matrix(5.84515 0 0 -5.84515 112.774 26.852)" fill="#000"/><use xlink:href="#r" transform="matrix(5.84515 0 0 -5.84515 114.747 26.852)" fill="#000"/><use xlink:href="#s" transform="matrix(5.84515 0 0 -5.84515 118.474 26.861)" fill="#000"/><use xlink:href="#k" transform="matrix(5.84515 0 0 -5.84515 122.356 26.786)" fill="#000"/><use xlink:href="#n" transform="matrix(5.84515 0 0 -5.84515 124.444 26.903)" fill="#000"/><use xlink:href="#s" transform="matrix(5.84515 0 0 -5.84515 130.414 26.861)" fill="#000"/><use xlink:href="#t" transform="matrix(5.84515 0 0 -5.84515 134.342 26.886)" fill="#000"/><use xlink:href="#r" transform="matrix(5.84515 0 0 -5.84515 138.415 26.852)" fill="#000"/><symbol id="u"><path d="M.487.244a.245.245 0 0 0-.15-.05.318.318 0 0 0-.055.004.108.108 0 0 0-.025.008H.256L.252.204H.252V.181A1.575 1.575 0 0 0 .245.034.1.1 0 0 0 .203.008a.147.147 0 0 0-.164.057.184.184 0 0 0-.03.074 3.079 3.079 0 0 0-.001.429.368.368 0 0 0 .008.06.14.14 0 0 0 .045.025.678.678 0 0 0 .259.032A.496.496 0 0 0 .411.67.256.256 0 0 0 .49.634.172.172 0 0 0 .542.576.285.285 0 0 0 .576.404.25.25 0 0 0 .549.316.208.208 0 0 0 .487.244m-.132.19C.355.444.35.452.342.46a.06.06 0 0 1-.033.015.06.06 0 0 1-.042-.01V.428A.868.868 0 0 1 .271.39L.275.387H.3c.008 0 .017.001.025.003.02.003.03.018.03.044z"/></symbol><symbol id="v"><path d="M.412.47a.175.175 0 0 1-.055.005.115.115 0 0 1-.05-.02A.098.098 0 0 1 .26.399.182.182 0 0 1 .256.324.11.11 0 0 1 .283.262a.105.105 0 0 1 .052-.03.178.178 0 0 1 .112.012.401.401 0 0 1 .072.04.099.099 0 0 0 .05-.026.124.124 0 0 0 .034-.05A.13.13 0 0 0 .58.08.205.205 0 0 0 .504.024a.22.22 0 0 0-.06-.018.53.53 0 0 0-.205.009.305.305 0 0 0-.142.078.324.324 0 0 0-.08.14A.456.456 0 0 0 0 .352C0 .392.006.43.02.47a.29.29 0 0 0 .067.112.39.39 0 0 0 .29.112A.445.445 0 0 0 .586.63.147.147 0 0 0 .588.56.123.123 0 0 0 .52.474.14.14 0 0 0 .466.46a.125.125 0 0 0-.054.01z"/></symbol><symbol id="w"><path d="M.605.363A.457.457 0 0 0 .58.215a.38.38 0 0 0-.04-.08.3.3 0 0 0-.157-.117A.401.401 0 0 0 .255 0a.471.471 0 0 0-.133.016.156.156 0 0 0-.08.054.197.197 0 0 0-.035.101A2.332 2.332 0 0 0 0 .375c0 .081.004.173.01.273a.287.287 0 0 0 .079.03.7.7 0 0 0 .29 0A.28.28 0 0 0 .567.541.368.368 0 0 0 .605.363M.27.211c.013 0 .026.002.038.004a.08.08 0 0 1 .036.018c.01.009.019.023.025.042a.273.273 0 0 1 0 .143.078.078 0 0 1-.024.036.076.076 0 0 1-.034.015.148.148 0 0 1-.037.002.262.262 0 0 1-.035-.004V.235c0-.01.004-.017.012-.02A.065.065 0 0 1 .27.211z"/></symbol><symbol id="x"><path d="M.398.388v.249a.137.137 0 0 0 .12.05.145.145 0 0 0 .06-.017.123.123 0 0 0 .044-.042.106.106 0 0 0 .017-.06V.511A4.678 4.678 0 0 0 .641.327 4.109 4.109 0 0 0 .635.046.138.138 0 0 0 .58.013a.208.208 0 0 0-.157.012.2.2 0 0 0-.07.062.904.904 0 0 0-.082.136.32.32 0 0 1-.02.035L.244.263H.241A1.833 1.833 0 0 1 .245.157.941.941 0 0 0 .247.042.174.174 0 0 0 .18.007a.156.156 0 0 0-.12.017.13.13 0 0 0-.04.036.086.086 0 0 0-.015.046 17.457 17.457 0 0 0-.005.3v.098a3.551 3.551 0 0 0 .005.138.204.204 0 0 0 .132.043C.163.683.187.676.211.664A.153.153 0 0 0 .27.606a2.332 2.332 0 0 0 .057-.1A2.06 2.06 0 0 0 .387.4L.39.393A.06.06 0 0 0 .395.386h.002l.001.002z"/></symbol><symbol id="y"><path d="M.089.156a.12.12 0 0 0-.053.03.132.132 0 0 0-.035.1.136.136 0 0 0 .053.1.13.13 0 0 0 .076.022A.118.118 0 0 0 .2.39.116.116 0 0 0 .244.34.157.157 0 0 0 .258.276.227.227 0 0 0 .248.21a.438.438 0 0 0-.09-.167.109.109 0 0 0-.044-.035A.082.082 0 0 0 .07.002a.061.061 0 0 0-.034.015.035.035 0 0 0-.013.027c.01.021.022.04.034.058a.564.564 0 0 1 .032.054z"/></symbol><symbol id="z"><path d="M.486.33A3.275 3.275 0 0 1 .564.164.724.724 0 0 0 .587.11a.098.098 0 0 0-.02-.054A.136.136 0 0 0 .459 0a.115.115 0 0 0-.063.02.166.166 0 0 0-.054.064 1.113 1.113 0 0 0-.047.108 5.148 5.148 0 0 0-.06-.136A1.864 1.864 0 0 0 .217.018.249.249 0 0 0 .125.01a.127.127 0 0 0-.06.024.113.113 0 0 0-.032.043.145.145 0 0 0-.012.048c0 .016.001.03.005.04a.4.4 0 0 0 .056.117l.028.05a.016.016 0 0 1 .001.009c0 .004 0 .007-.002.01C.092.392.073.43.055.47L0 .587a.091.091 0 0 0 .025.05.152.152 0 0 0 .051.033.18.18 0 0 0 .06.013C.159.684.177.68.195.673a.08.08 0 0 0 .04-.04A1.183 1.183 0 0 0 .301.483l.051.1C.371.617.39.649.409.679a.14.14 0 0 0 .15-.043.1.1 0 0 0 .024-.052.13.13 0 0 0-.008-.066.443.443 0 0 0-.039-.08A1.172 1.172 0 0 1 .488.349.022.022 0 0 1 .486.33z"/></symbol><use xlink:href="#o" transform="matrix(5.84515 0 0 -5.84515 9.9 38.542)" fill="#000"/><use xlink:href="#l" transform="matrix(5.84515 0 0 -5.84515 11.762 38.577)" fill="#000"/><use xlink:href="#k" transform="matrix(5.84515 0 0 -5.84515 15.294 38.476)" fill="#000"/><use xlink:href="#u" transform="matrix(5.84515 0 0 -5.84515 17.484 38.525)" fill="#000"/><use xlink:href="#m" transform="matrix(5.84515 0 0 -5.84515 21.195 38.494)" fill="#000"/><use xlink:href="#t" transform="matrix(5.84515 0 0 -5.84515 24.61 38.576)" fill="#000"/><use xlink:href="#v" transform="matrix(5.84515 0 0 -5.84515 28.61 38.557)" fill="#000"/><use xlink:href="#h" transform="matrix(5.84515 0 0 -5.84515 32.502 38.51)" fill="#000"/><use xlink:href="#w" transform="matrix(5.84515 0 0 -5.84515 35.806 38.558)" fill="#000"/><use xlink:href="#k" transform="matrix(5.84515 0 0 -5.84515 39.477 38.476)" fill="#000"/><use xlink:href="#o" transform="matrix(5.84515 0 0 -5.84515 41.581 38.542)" fill="#000"/><use xlink:href="#x" transform="matrix(5.84515 0 0 -5.84515 43.518 38.551)" fill="#000"/><use xlink:href="#k" transform="matrix(5.84515 0 0 -5.84515 47.508 38.476)" fill="#000"/><use xlink:href="#o" transform="matrix(5.84515 0 0 -5.84515 49.612 38.542)" fill="#000"/><use xlink:href="#r" transform="matrix(5.84515 0 0 -5.84515 51.585 38.542)" fill="#000"/><use xlink:href="#y" transform="matrix(5.84515 0 0 -5.84515 55.222 39.417)" fill="#000"/><use xlink:href="#k" transform="matrix(5.84515 0 0 -5.84515 56.786 38.476)" fill="#000"/><use xlink:href="#h" transform="matrix(5.84515 0 0 -5.84515 58.949 38.51)" fill="#000"/><use xlink:href="#z" transform="matrix(5.84515 0 0 -5.84515 62.12 38.56)" fill="#000"/><use xlink:href="#v" transform="matrix(5.84515 0 0 -5.84515 65.87 38.557)" fill="#000"/><use xlink:href="#h" transform="matrix(5.84515 0 0 -5.84515 69.762 38.51)" fill="#000"/><use xlink:href="#u" transform="matrix(5.84515 0 0 -5.84515 73.07 38.525)" fill="#000"/><use xlink:href="#r" transform="matrix(5.84515 0 0 -5.84515 76.875 38.542)" fill="#000"/><use xlink:href="#k" transform="matrix(5.84515 0 0 -5.84515 80.455 38.476)" fill="#000"/><use xlink:href="#q" transform="matrix(5.84515 0 0 -5.84515 82.61 38.516)" fill="#000"/><use xlink:href="#p" transform="matrix(5.84515 0 0 -5.84515 85.885 38.588)" fill="#000"/><use xlink:href="#i" transform="matrix(5.84515 0 0 -5.84515 90.274 38.59)" fill="#000"/><use xlink:href="#k" transform="matrix(5.84515 0 0 -5.84515 93.988 38.476)" fill="#000"/><use xlink:href="#r" transform="matrix(5.84515 0 0 -5.84515 96.203 38.542)" fill="#000"/><use xlink:href="#s" transform="matrix(5.84515 0 0 -5.84515 99.93 38.551)" fill="#000"/><use xlink:href="#h" transform="matrix(5.84515 0 0 -5.84515 104.01 38.51)" fill="#000"/><use xlink:href="#k" transform="matrix(5.84515 0 0 -5.84515 107.093 38.476)" fill="#000"/><use xlink:href="#g" transform="matrix(5.84515 0 0 -5.84515 109.26 38.579)" fill="#000"/><use xlink:href="#h" transform="matrix(5.84515 0 0 -5.84515 113.355 38.51)" fill="#000"/><use xlink:href="#l" transform="matrix(5.84515 0 0 -5.84515 116.576 38.577)" fill="#000"/><use xlink:href="#l" transform="matrix(5.84515 0 0 -5.84515 120.247 38.577)" fill="#000"/><use xlink:href="#h" transform="matrix(5.84515 0 0 -5.84515 123.977 38.51)" fill="#000"/><use xlink:href="#m" transform="matrix(5.84515 0 0 -5.84515 127.217 38.494)" fill="#000"/><use xlink:href="#k" transform="matrix(5.84515 0 0 -5.84515 130.586 38.476)" fill="#000"/><use xlink:href="#p" transform="matrix(5.84515 0 0 -5.84515 132.697 38.588)" fill="#000"/><use xlink:href="#q" transform="matrix(5.84515 0 0 -5.84515 137.105 38.516)" fill="#000"/><symbol id="A"><path d="M.25.44A6.598 6.598 0 0 1 .31.534a1.862 1.862 0 0 0 .052.077 3.251 3.251 0 0 0 .053.076.143.143 0 0 0 .069-.002A.122.122 0 0 0 .54.654.102.102 0 0 0 .57.596.13.13 0 0 0 .555.519 1.005 1.005 0 0 0 .47.374C.465.367.465.359.47.35L.52.26.57.172A.59.59 0 0 0 .606.096a.11.11 0 0 0-.03-.048A.163.163 0 0 0 .464 0a.119.119 0 0 0-.062.018.15.15 0 0 0-.05.06l-.026.05L.288.2A2.077 2.077 0 0 1 .265.162.112.112 0 0 1 .25.132a.781.781 0 0 1 .001-.09.12.12 0 0 0-.044-.024.193.193 0 0 0-.119.004.106.106 0 0 0-.073.09 1.178 1.178 0 0 0-.012.16A6.816 6.816 0 0 0 0 .475L.002.57l.005.075c.011.013.026.024.045.031A.178.178 0 0 0 .177.68.113.113 0 0 0 .228.644.098.098 0 0 0 .249.582a1.07 1.07 0 0 0 0-.143z"/></symbol><symbol id="B"><path d="M.41.46a.156.156 0 0 1-.055.005.11.11 0 0 1-.05-.02A.096.096 0 0 1 .26.39.176.176 0 0 1 .256.315a.106.106 0 0 1 .033-.07.094.094 0 0 1 .064-.023c.018 0 .032.004.042.011.01.008.018.018.022.03A.123.123 0 0 1 .426.3a.647.647 0 0 1 .002.04C.435.35.446.356.462.36a.161.161 0 0 0 .054.005C.536.364.556.36.576.352A.12.12 0 0 0 .623.318.089.089 0 0 0 .646.261.25.25 0 0 0 .614.132.26.26 0 0 0 .473.019.385.385 0 0 0 .345 0c-.054 0-.1.007-.139.02a.302.302 0 0 0-.094.053.294.294 0 0 0-.058.07A.356.356 0 0 0 0 .336C0 .38.007.421.02.46c.015.044.037.08.067.11a.381.381 0 0 0 .288.112A.443.443 0 0 0 .58.617.147.147 0 0 0 .584.55.123.123 0 0 0 .516.463.147.147 0 0 0 .463.451.125.125 0 0 0 .41.46z"/></symbol><symbol id="C"><path d="M.13 0a2.544 2.544 0 0 1-.04.006.122.122 0 0 0-.062.034.11.11 0 0 0-.027.065.418.418 0 0 0 .002.066C.007.192.015.21.027.223c.013.013.03.023.05.03.03.01.059.011.088.004A.12.12 0 0 0 .26.127.2.2 0 0 0 .256.101.135.135 0 0 0 .248.074.107.107 0 0 0 .203.019.14.14 0 0 0 .131 0z"/></symbol><symbol id="D"><path d="M.089.156a.12.12 0 0 0-.053.031.132.132 0 0 0-.035.1.136.136 0 0 0 .053.1C.072.401.098.408.13.408A.115.115 0 0 0 .243.341.157.157 0 0 0 .258.277a.227.227 0 0 0-.01-.066.504.504 0 0 0-.09-.167.11.11 0 0 0-.043-.036A.09.09 0 0 0 .07.002a.068.068 0 0 0-.034.014.037.037 0 0 0-.013.028c.01.022.022.041.034.06a.564.564 0 0 1 .032.052m.287 0a.12.12 0 0 0-.054.031.124.124 0 0 0-.027.047.146.146 0 0 0 .005.1c.009.022.023.04.04.053.02.014.044.021.077.021A.115.115 0 0 0 .53.341.157.157 0 0 0 .544.277.227.227 0 0 0 .536.211a.504.504 0 0 0-.09-.167.109.109 0 0 0-.044-.036.09.09 0 0 0-.045-.006.068.068 0 0 0-.034.014.037.037 0 0 0-.013.028c.01.022.022.041.034.06a.564.564 0 0 1 .032.052z"/></symbol><use xlink:href="#A" transform="matrix(5.84515 0 0 -5.84515 22.048 50.263)" fill="#000"/><use xlink:href="#x" transform="matrix(5.84515 0 0 -5.84515 25.902 50.242)" fill="#000"/><use xlink:href="#p" transform="matrix(5.84515 0 0 -5.84515 30.04 50.278)" fill="#000"/><use xlink:href="#n" transform="matrix(5.84515 0 0 -5.84515 34.381 50.283)" fill="#000"/><use xlink:href="#m" transform="matrix(5.84515 0 0 -5.84515 40.36 50.185)" fill="#000"/><use xlink:href="#h" transform="matrix(5.84515 0 0 -5.84515 43.928 50.2)" fill="#000"/><use xlink:href="#w" transform="matrix(5.84515 0 0 -5.84515 47.233 50.248)" fill="#000"/><use xlink:href="#B" transform="matrix(5.84515 0 0 -5.84515 51.049 50.22)" fill="#000"/><use xlink:href="#h" transform="matrix(5.84515 0 0 -5.84515 55.155 50.2)" fill="#000"/><use xlink:href="#y" transform="matrix(5.84515 0 0 -5.84515 58.294 51.107)" fill="#000"/><use xlink:href="#k" transform="matrix(5.84515 0 0 -5.84515 59.858 50.166)" fill="#000"/><use xlink:href="#n" transform="matrix(5.84515 0 0 -5.84515 61.947 50.283)" fill="#000"/><use xlink:href="#s" transform="matrix(5.84515 0 0 -5.84515 67.916 50.242)" fill="#000"/><use xlink:href="#o" transform="matrix(5.84515 0 0 -5.84515 71.938 50.233)" fill="#000"/><use xlink:href="#v" transform="matrix(5.84515 0 0 -5.84515 73.837 50.247)" fill="#000"/><use xlink:href="#s" transform="matrix(5.84515 0 0 -5.84515 77.678 50.242)" fill="#000"/><use xlink:href="#k" transform="matrix(5.84515 0 0 -5.84515 81.559 50.166)" fill="#000"/><use xlink:href="#n" transform="matrix(5.84515 0 0 -5.84515 83.648 50.283)" fill="#000"/><use xlink:href="#o" transform="matrix(5.84515 0 0 -5.84515 89.61 50.233)" fill="#000"/><use xlink:href="#m" transform="matrix(5.84515 0 0 -5.84515 91.489 50.185)" fill="#000"/><use xlink:href="#m" transform="matrix(5.84515 0 0 -5.84515 95.016 50.185)" fill="#000"/><use xlink:href="#k" transform="matrix(5.84515 0 0 -5.84515 98.385 50.166)" fill="#000"/><use xlink:href="#h" transform="matrix(5.84515 0 0 -5.84515 100.548 50.2)" fill="#000"/><use xlink:href="#z" transform="matrix(5.84515 0 0 -5.84515 103.72 50.25)" fill="#000"/><use xlink:href="#u" transform="matrix(5.84515 0 0 -5.84515 107.519 50.216)" fill="#000"/><use xlink:href="#t" transform="matrix(5.84515 0 0 -5.84515 111.12 50.266)" fill="#000"/><use xlink:href="#x" transform="matrix(5.84515 0 0 -5.84515 115.156 50.242)" fill="#000"/><use xlink:href="#w" transform="matrix(5.84515 0 0 -5.84515 119.369 50.248)" fill="#000"/><use xlink:href="#C" transform="matrix(5.84515 0 0 -5.84515 123.125 50.28)" fill="#000"/><use xlink:href="#D" transform="matrix(5.84515 0 0 -5.84515 124.796 48.454)" fill="#000"/><symbol id="E"><path d="M.143.257A1.58 1.58 0 0 0 .38.262 1.87 1.87 0 0 0 .55.249.097.097 0 0 0 .576.205.138.138 0 0 0 .56.092a.16.16 0 0 0-.047-.05.204.204 0 0 0-.077-.03A1.794 1.794 0 0 0 .088.006a.37.37 0 0 0-.053.009.14.14 0 0 0-.026.046.146.146 0 0 0 .009.117c.01.02.024.036.045.05.02.014.047.024.08.029z"/></symbol><symbol id="F"><path d="M.008.216a1.716 1.716 0 0 0 .05.192 4.55 4.55 0 0 0 .066.191c.012.027.021.049.03.065A.565.565 0 0 0 .3.69.275.275 0 0 0 .384.68.202.202 0 0 0 .52.55a2.973 2.973 0 0 0 .11-.37C.64.147.646.116.65.088A.064.064 0 0 0 .632.052a.149.149 0 0 0-.043-.03.186.186 0 0 0-.055-.016.139.139 0 0 0-.059.005.12.12 0 0 0-.053.034.176.176 0 0 0-.037.07C.365.118.342.118.32.117H.254A.581.581 0 0 1 .222.02.22.22 0 0 0 .116.004.121.121 0 0 0 .042.04a.148.148 0 0 0-.036.075.277.277 0 0 0 .002.102M.28.307H.36a3.524 3.524 0 0 1-.038.16.02.02 0 0 0-.006 0A7.6 7.6 0 0 1 .28.306z"/></symbol><symbol id="G"><path d="M.25.547A1.628 1.628 0 0 0 .257.403a3.85 3.85 0 0 0-.014-.37A.095.095 0 0 0 .2.007a.143.143 0 0 0-.11.015.167.167 0 0 0-.05.047.202.202 0 0 0-.029.075A4.287 4.287 0 0 0 0 .437a5.258 5.258 0 0 0 .006.165c.002.022.005.04.008.05.012.012.028.02.045.026a.164.164 0 0 0 .058.007.132.132 0 0 0 .105-.06A.18.18 0 0 0 .25.547z"/></symbol><symbol id="H"><path d="M.45.366A.129.129 0 0 0 .52.311.162.162 0 0 0 .544.218.203.203 0 0 0 .509.102.215.215 0 0 0 .414.027.377.377 0 0 0 .264 0a.279.279 0 0 0-.182.053.229.229 0 0 0-.075.158 2.435 2.435 0 0 0-.002.326l.008.109a.297.297 0 0 0 .077.03.666.666 0 0 0 .282.003.18.18 0 0 0 .146-.165.18.18 0 0 0-.012-.075.154.154 0 0 0-.048-.066.135.135 0 0 0-.007-.007M.238.202A.06.06 0 0 1 .293.201c.01.004.016.01.02.018a.055.055 0 0 1 .005.028.032.032 0 0 1-.01.022.04.04 0 0 1-.021.012.104.104 0 0 1-.025.002.032.032 0 0 1-.024-.01.92.92 0 0 1 0-.035V.202M.233.437A.048.048 0 0 1 .257.431c.009 0 .017.004.023.01.007.007.01.017.01.031 0 .012-.005.02-.013.025a.04.04 0 0 1-.025.006C.242.503.236.5.232.495A.076.076 0 0 1 .229.47.11.11 0 0 1 .233.437z"/></symbol><symbol id="I"><path d="M.556.677a.112.112 0 0 0 .018-.04A.193.193 0 0 0 .58.58C.58.56.576.54.568.522A.113.113 0 0 0 .529.475.13.13 0 0 0 .46.453.417.417 0 0 1 .414.45 2.311 2.311 0 0 0 .416.276 3.09 3.09 0 0 0 .402.033.092.092 0 0 0 .36.007a.137.137 0 0 0-.11.016A.172.172 0 0 0 .2.07a.204.204 0 0 0-.029.077 4.796 4.796 0 0 0-.01.207V.45A.861.861 0 0 0 .09.448a.375.375 0 0 0-.067.007.11.11 0 0 0-.019.043.18.18 0 0 0 .012.112c.009.018.021.032.037.044a.118.118 0 0 0 .063.02 1.355 1.355 0 0 0 .134.003h.305z"/></symbol><use xlink:href="#E" transform="matrix(4.59167 0 0 -4.59167 99.022 60.39)" fill="#000"/><use xlink:href="#k" transform="matrix(4.59167 0 0 -4.59167 101.753 61.13)" fill="#000"/><use xlink:href="#F" transform="matrix(4.59167 0 0 -4.59167 103.306 61.2)" fill="#000"/><use xlink:href="#m" transform="matrix(4.59167 0 0 -4.59167 106.46 61.145)" fill="#000"/><use xlink:href="#o" transform="matrix(4.59167 0 0 -4.59167 109.216 61.182)" fill="#000"/><use xlink:href="#k" transform="matrix(4.59167 0 0 -4.59167 110.57 61.13)" fill="#000"/><use xlink:href="#G" transform="matrix(4.59167 0 0 -4.59167 112.222 61.182)" fill="#000"/><use xlink:href="#H" transform="matrix(4.59167 0 0 -4.59167 113.638 61.198)" fill="#000"/><use xlink:href="#x" transform="matrix(4.59167 0 0 -4.59167 116.37 61.19)" fill="#000"/><use xlink:href="#k" transform="matrix(4.59167 0 0 -4.59167 119.504 61.13)" fill="#000"/><use xlink:href="#F" transform="matrix(4.59167 0 0 -4.59167 121.057 61.2)" fill="#000"/><use xlink:href="#H" transform="matrix(4.59167 0 0 -4.59167 124.15 61.198)" fill="#000"/><use xlink:href="#o" transform="matrix(4.59167 0 0 -4.59167 126.823 61.182)" fill="#000"/><use xlink:href="#k" transform="matrix(4.59167 0 0 -4.59167 128.176 61.13)" fill="#000"/><use xlink:href="#I" transform="matrix(4.59167 0 0 -4.59167 129.916 61.182)" fill="#000"/><use xlink:href="#t" transform="matrix(4.59167 0 0 -4.59167 132.765 61.209)" fill="#000"/><use xlink:href="#m" transform="matrix(4.59167 0 0 -4.59167 135.891 61.145)" fill="#000"/><use xlink:href="#o" transform="matrix(4.59167 0 0 -4.59167 138.648 61.182)" fill="#000"/><use xlink:href="#H" transform="matrix(4.59167 0 0 -4.59167 140.065 61.198)" fill="#000"/></g></svg>
