<svg xmlns="http://www.w3.org/2000/svg" version="1.1" xmlns:xlink="http://www.w3.org/1999/xlink" xmlns:svgjs="http://svgjs.dev/svgjs" width="200" height="100" preserveAspectRatio="none" viewBox="0 0 200 100"><g mask="url(&quot;#SvgjsMask1206&quot;)" fill="none"><rect width="200" height="100" x="0" y="0" fill="rgba(8, 9, 35, 1)"></rect><g mask="url(&quot;#SvgjsMask1207&quot;)"><path d="M145 25L145 5" stroke-width="1.67" stroke="rgba(148, 144, 135, 0.1)"></path><path d="M142.5 25 a2.5 2.5 0 1 0 5 0 a2.5 2.5 0 1 0 -5 0zM142.5 5 a2.5 2.5 0 1 0 5 0 a2.5 2.5 0 1 0 -5 0z" fill="rgba(148, 144, 135, 0.1)"></path><path d="M185 95L195 85L195 5" stroke-width="1.67" stroke="rgba(148, 144, 135, 0.1)"></path><path d="M182.5 95 a2.5 2.5 0 1 0 5 0 a2.5 2.5 0 1 0 -5 0zM192.5 5 a2.5 2.5 0 1 0 5 0 a2.5 2.5 0 1 0 -5 0z" fill="rgba(148, 144, 135, 0.1)"></path><path d="M35 25L95 85L95 95" stroke-width="1.67" stroke="rgba(148, 144, 135, 0.1)"></path><path d="M32.5 25 a2.5 2.5 0 1 0 5 0 a2.5 2.5 0 1 0 -5 0zM92.5 95 a2.5 2.5 0 1 0 5 0 a2.5 2.5 0 1 0 -5 0z" fill="rgba(148, 144, 135, 0.1)"></path><path d="M55 95L5 45L5 5" stroke-width="1.67" stroke="rgba(148, 144, 135, 0.1)"></path><path d="M52.5 95 a2.5 2.5 0 1 0 5 0 a2.5 2.5 0 1 0 -5 0zM2.5 5 a2.5 2.5 0 1 0 5 0 a2.5 2.5 0 1 0 -5 0z" fill="rgba(148, 144, 135, 0.1)"></path><path d="M55 85L55 75L15 35L15 5" stroke-width="1.67" stroke="rgba(148, 144, 135, 0.1)"></path><path d="M52.5 85 a2.5 2.5 0 1 0 5 0 a2.5 2.5 0 1 0 -5 0zM12.5 5 a2.5 2.5 0 1 0 5 0 a2.5 2.5 0 1 0 -5 0z" fill="rgba(148, 144, 135, 0.1)"></path><path d="M95 35L155 95L175 95L185 85L185 25L165 5L155 5" stroke-width="1.67" stroke="rgba(148, 144, 135, 0.1)"></path><path d="M92.5 35 a2.5 2.5 0 1 0 5 0 a2.5 2.5 0 1 0 -5 0zM152.5 5 a2.5 2.5 0 1 0 5 0 a2.5 2.5 0 1 0 -5 0z" fill="rgba(148, 144, 135, 0.1)"></path><path d="M5 95L25 75" stroke-width="1.67" stroke="rgba(148, 144, 135, 0.1)"></path><path d="M2.5 95 a2.5 2.5 0 1 0 5 0 a2.5 2.5 0 1 0 -5 0zM22.5 75 a2.5 2.5 0 1 0 5 0 a2.5 2.5 0 1 0 -5 0z" fill="rgba(148, 144, 135, 0.1)"></path><path d="M115 45L115 35L135 15L135 5" stroke-width="1.67" stroke="rgba(148, 144, 135, 0.1)"></path><path d="M112.5 45 a2.5 2.5 0 1 0 5 0 a2.5 2.5 0 1 0 -5 0zM132.5 5 a2.5 2.5 0 1 0 5 0 a2.5 2.5 0 1 0 -5 0z" fill="rgba(148, 144, 135, 0.1)"></path><path d="M25 5L25 35L45 55L55 55" stroke-width="1.67" stroke="rgba(148, 144, 135, 0.1)"></path><path d="M22.5 5 a2.5 2.5 0 1 0 5 0 a2.5 2.5 0 1 0 -5 0zM52.5 55 a2.5 2.5 0 1 0 5 0 a2.5 2.5 0 1 0 -5 0z" fill="rgba(148, 144, 135, 0.1)"></path><path d="M125 45L125 55L145 75L155 75L165 85L175 85" stroke-width="1.67" stroke="rgba(148, 144, 135, 0.1)"></path><path d="M122.5 45 a2.5 2.5 0 1 0 5 0 a2.5 2.5 0 1 0 -5 0zM172.5 85 a2.5 2.5 0 1 0 5 0 a2.5 2.5 0 1 0 -5 0z" fill="rgba(148, 144, 135, 0.1)"></path><path d="M55 25L55 5" stroke-width="1.67" stroke="rgba(148, 144, 135, 0.1)"></path><path d="M52.5 25 a2.5 2.5 0 1 0 5 0 a2.5 2.5 0 1 0 -5 0zM52.5 5 a2.5 2.5 0 1 0 5 0 a2.5 2.5 0 1 0 -5 0z" fill="rgba(148, 144, 135, 0.1)"></path><path d="M5 55L5 85" stroke-width="1.67" stroke="rgba(148, 144, 135, 0.1)"></path><path d="M2.5 55 a2.5 2.5 0 1 0 5 0 a2.5 2.5 0 1 0 -5 0zM2.5 85 a2.5 2.5 0 1 0 5 0 a2.5 2.5 0 1 0 -5 0z" fill="rgba(148, 144, 135, 0.1)"></path><path d="M85 15L65 35L55 35" stroke-width="1.67" stroke="rgba(148, 144, 135, 0.1)"></path><path d="M82.5 15 a2.5 2.5 0 1 0 5 0 a2.5 2.5 0 1 0 -5 0zM52.5 35 a2.5 2.5 0 1 0 5 0 a2.5 2.5 0 1 0 -5 0z" fill="rgba(148, 144, 135, 0.1)"></path><path d="M115 75L75 35" stroke-width="1.67" stroke="rgba(148, 144, 135, 0.1)"></path><path d="M112.5 75 a2.5 2.5 0 1 0 5 0 a2.5 2.5 0 1 0 -5 0zM72.5 35 a2.5 2.5 0 1 0 5 0 a2.5 2.5 0 1 0 -5 0z" fill="rgba(148, 144, 135, 0.1)"></path><path d="M175 75L165 75L145 55L145 35L165 15" stroke-width="1.67" stroke="rgba(148, 144, 135, 0.1)"></path><path d="M172.5 75 a2.5 2.5 0 1 0 5 0 a2.5 2.5 0 1 0 -5 0zM162.5 15 a2.5 2.5 0 1 0 5 0 a2.5 2.5 0 1 0 -5 0z" fill="rgba(148, 144, 135, 0.1)"></path><path d="M85 65L115 95L145 95" stroke-width="1.67" stroke="rgba(148, 144, 135, 0.1)"></path><path d="M82.5 65 a2.5 2.5 0 1 0 5 0 a2.5 2.5 0 1 0 -5 0zM142.5 95 a2.5 2.5 0 1 0 5 0 a2.5 2.5 0 1 0 -5 0z" fill="rgba(148, 144, 135, 0.1)"></path><path d="M95 15L85 25L85 35" stroke-width="1.67" stroke="rgba(148, 144, 135, 0.1)"></path><path d="M92.5 15 a2.5 2.5 0 1 0 5 0 a2.5 2.5 0 1 0 -5 0zM82.5 35 a2.5 2.5 0 1 0 5 0 a2.5 2.5 0 1 0 -5 0z" fill="rgba(148, 144, 135, 0.1)"></path><path d="M165 55L165 25" stroke-width="1.67" stroke="rgba(148, 144, 135, 0.1)"></path><path d="M162.5 55 a2.5 2.5 0 1 0 5 0 a2.5 2.5 0 1 0 -5 0zM162.5 25 a2.5 2.5 0 1 0 5 0 a2.5 2.5 0 1 0 -5 0z" fill="rgba(148, 144, 135, 0.1)"></path><path d="M15 95L25 85L35 85L45 95" stroke-width="1.67" stroke="rgba(148, 144, 135, 0.1)"></path><path d="M12.5 95 a2.5 2.5 0 1 0 5 0 a2.5 2.5 0 1 0 -5 0zM42.5 95 a2.5 2.5 0 1 0 5 0 a2.5 2.5 0 1 0 -5 0z" fill="rgba(148, 144, 135, 0.1)"></path><path d="M155 35L155 55" stroke-width="1.67" stroke="rgba(148, 144, 135, 0.1)"></path><path d="M152.5 35 a2.5 2.5 0 1 0 5 0 a2.5 2.5 0 1 0 -5 0zM152.5 55 a2.5 2.5 0 1 0 5 0 a2.5 2.5 0 1 0 -5 0z" fill="rgba(148, 144, 135, 0.1)"></path><path d="M135 25L135 55" stroke-width="1.67" stroke="rgba(148, 144, 135, 0.1)"></path><path d="M132.5 25 a2.5 2.5 0 1 0 5 0 a2.5 2.5 0 1 0 -5 0zM132.5 55 a2.5 2.5 0 1 0 5 0 a2.5 2.5 0 1 0 -5 0z" fill="rgba(148, 144, 135, 0.1)"></path><path d="M65 15L75 5L115 5" stroke-width="1.67" stroke="rgba(148, 144, 135, 0.1)"></path><path d="M62.5 15 a2.5 2.5 0 1 0 5 0 a2.5 2.5 0 1 0 -5 0zM112.5 5 a2.5 2.5 0 1 0 5 0 a2.5 2.5 0 1 0 -5 0z" fill="rgba(148, 144, 135, 0.1)"></path></g></g><defs><mask id="SvgjsMask1206"><rect width="200" height="100" fill="#ffffff"></rect></mask><mask id="SvgjsMask1207"><rect width="200" height="100" fill="white"></rect><path d="M143.75 25 a1.25 1.25 0 1 0 2.5 0 a1.25 1.25 0 1 0 -2.5 0zM143.75 5 a1.25 1.25 0 1 0 2.5 0 a1.25 1.25 0 1 0 -2.5 0z" fill="black"></path><path d="M183.75 95 a1.25 1.25 0 1 0 2.5 0 a1.25 1.25 0 1 0 -2.5 0zM193.75 5 a1.25 1.25 0 1 0 2.5 0 a1.25 1.25 0 1 0 -2.5 0z" fill="black"></path><path d="M33.75 25 a1.25 1.25 0 1 0 2.5 0 a1.25 1.25 0 1 0 -2.5 0zM93.75 95 a1.25 1.25 0 1 0 2.5 0 a1.25 1.25 0 1 0 -2.5 0z" fill="black"></path><path d="M53.75 95 a1.25 1.25 0 1 0 2.5 0 a1.25 1.25 0 1 0 -2.5 0zM3.75 5 a1.25 1.25 0 1 0 2.5 0 a1.25 1.25 0 1 0 -2.5 0z" fill="black"></path><path d="M53.75 85 a1.25 1.25 0 1 0 2.5 0 a1.25 1.25 0 1 0 -2.5 0zM13.75 5 a1.25 1.25 0 1 0 2.5 0 a1.25 1.25 0 1 0 -2.5 0z" fill="black"></path><path d="M93.75 35 a1.25 1.25 0 1 0 2.5 0 a1.25 1.25 0 1 0 -2.5 0zM153.75 5 a1.25 1.25 0 1 0 2.5 0 a1.25 1.25 0 1 0 -2.5 0z" fill="black"></path><path d="M3.75 95 a1.25 1.25 0 1 0 2.5 0 a1.25 1.25 0 1 0 -2.5 0zM23.75 75 a1.25 1.25 0 1 0 2.5 0 a1.25 1.25 0 1 0 -2.5 0z" fill="black"></path><path d="M113.75 45 a1.25 1.25 0 1 0 2.5 0 a1.25 1.25 0 1 0 -2.5 0zM133.75 5 a1.25 1.25 0 1 0 2.5 0 a1.25 1.25 0 1 0 -2.5 0z" fill="black"></path><path d="M23.75 5 a1.25 1.25 0 1 0 2.5 0 a1.25 1.25 0 1 0 -2.5 0zM53.75 55 a1.25 1.25 0 1 0 2.5 0 a1.25 1.25 0 1 0 -2.5 0z" fill="black"></path><path d="M123.75 45 a1.25 1.25 0 1 0 2.5 0 a1.25 1.25 0 1 0 -2.5 0zM173.75 85 a1.25 1.25 0 1 0 2.5 0 a1.25 1.25 0 1 0 -2.5 0z" fill="black"></path><path d="M53.75 25 a1.25 1.25 0 1 0 2.5 0 a1.25 1.25 0 1 0 -2.5 0zM53.75 5 a1.25 1.25 0 1 0 2.5 0 a1.25 1.25 0 1 0 -2.5 0z" fill="black"></path><path d="M3.75 55 a1.25 1.25 0 1 0 2.5 0 a1.25 1.25 0 1 0 -2.5 0zM3.75 85 a1.25 1.25 0 1 0 2.5 0 a1.25 1.25 0 1 0 -2.5 0z" fill="black"></path><path d="M83.75 15 a1.25 1.25 0 1 0 2.5 0 a1.25 1.25 0 1 0 -2.5 0zM53.75 35 a1.25 1.25 0 1 0 2.5 0 a1.25 1.25 0 1 0 -2.5 0z" fill="black"></path><path d="M113.75 75 a1.25 1.25 0 1 0 2.5 0 a1.25 1.25 0 1 0 -2.5 0zM73.75 35 a1.25 1.25 0 1 0 2.5 0 a1.25 1.25 0 1 0 -2.5 0z" fill="black"></path><path d="M173.75 75 a1.25 1.25 0 1 0 2.5 0 a1.25 1.25 0 1 0 -2.5 0zM163.75 15 a1.25 1.25 0 1 0 2.5 0 a1.25 1.25 0 1 0 -2.5 0z" fill="black"></path><path d="M83.75 65 a1.25 1.25 0 1 0 2.5 0 a1.25 1.25 0 1 0 -2.5 0zM143.75 95 a1.25 1.25 0 1 0 2.5 0 a1.25 1.25 0 1 0 -2.5 0z" fill="black"></path><path d="M93.75 15 a1.25 1.25 0 1 0 2.5 0 a1.25 1.25 0 1 0 -2.5 0zM83.75 35 a1.25 1.25 0 1 0 2.5 0 a1.25 1.25 0 1 0 -2.5 0z" fill="black"></path><path d="M163.75 55 a1.25 1.25 0 1 0 2.5 0 a1.25 1.25 0 1 0 -2.5 0zM163.75 25 a1.25 1.25 0 1 0 2.5 0 a1.25 1.25 0 1 0 -2.5 0z" fill="black"></path><path d="M13.75 95 a1.25 1.25 0 1 0 2.5 0 a1.25 1.25 0 1 0 -2.5 0zM43.75 95 a1.25 1.25 0 1 0 2.5 0 a1.25 1.25 0 1 0 -2.5 0z" fill="black"></path><path d="M153.75 35 a1.25 1.25 0 1 0 2.5 0 a1.25 1.25 0 1 0 -2.5 0zM153.75 55 a1.25 1.25 0 1 0 2.5 0 a1.25 1.25 0 1 0 -2.5 0z" fill="black"></path><path d="M133.75 25 a1.25 1.25 0 1 0 2.5 0 a1.25 1.25 0 1 0 -2.5 0zM133.75 55 a1.25 1.25 0 1 0 2.5 0 a1.25 1.25 0 1 0 -2.5 0z" fill="black"></path><path d="M63.75 15 a1.25 1.25 0 1 0 2.5 0 a1.25 1.25 0 1 0 -2.5 0zM113.75 5 a1.25 1.25 0 1 0 2.5 0 a1.25 1.25 0 1 0 -2.5 0z" fill="black"></path></mask></defs></svg>