<svg xmlns="http://www.w3.org/2000/svg" version="1.1" xmlns:xlink="http://www.w3.org/1999/xlink" xmlns:svgjs="http://svgjs.dev/svgjs" width="450" height="120" preserveAspectRatio="none" viewBox="0 0 450 120"><g mask="url(&quot;#SvgjsMask1036&quot;)" fill="none"><rect width="450" height="120" x="0" y="0" fill="rgba(249, 245, 220, 1)"></rect><path d="M1 120L121 0L160 0L40 120z" fill="url(&quot;#SvgjsLinearGradient1037&quot;)"></path><path d="M81.25 120L201.25 0L235.75 0L115.75 120z" fill="url(&quot;#SvgjsLinearGradient1037&quot;)"></path><path d="M161.5 120L281.5 0L385 0L265 120z" fill="url(&quot;#SvgjsLinearGradient1037&quot;)"></path><path d="M223.75 120L343.75 0L369.25 0L249.25 120z" fill="url(&quot;#SvgjsLinearGradient1037&quot;)"></path><path d="M438 120L318 0L276 0L396 120z" fill="url(&quot;#SvgjsLinearGradient1038&quot;)"></path><path d="M369.75 120L249.75 0L140.25 0L260.25 120z" fill="url(&quot;#SvgjsLinearGradient1038&quot;)"></path><path d="M293.5 120L173.5 0L70 0L190 120z" fill="url(&quot;#SvgjsLinearGradient1038&quot;)"></path><path d="M212.25 120L92.25 0L57.75 0L177.75 120z" fill="url(&quot;#SvgjsLinearGradient1038&quot;)"></path><path d="M381.2666138649314 120L450 51.26661386493143L450 120z" fill="url(&quot;#SvgjsLinearGradient1037&quot;)"></path><path d="M0 120L68.73338613506857 120L 0 51.26661386493143z" fill="url(&quot;#SvgjsLinearGradient1038&quot;)"></path></g><defs><mask id="SvgjsMask1036"><rect width="450" height="120" fill="#ffffff"></rect></mask><linearGradient x1="0%" y1="100%" x2="100%" y2="0%" id="SvgjsLinearGradient1037"><stop stop-color="rgba(148, 144, 135, 0.1)" offset="0"></stop><stop stop-opacity="0" stop-color="rgba(148, 144, 135, 0.1)" offset="0.66"></stop></linearGradient><linearGradient x1="100%" y1="100%" x2="0%" y2="0%" id="SvgjsLinearGradient1038"><stop stop-color="rgba(148, 144, 135, 0.1)" offset="0"></stop><stop stop-opacity="0" stop-color="rgba(148, 144, 135, 0.1)" offset="0.66"></stop></linearGradient></defs></svg>